<svg width="14" height="12" viewBox="0 0 14 12" fill="none" xmlns="http://www.w3.org/2000/svg">
    <path
        d="M4.9 6C5.45379 6 5.99514 5.83579 6.4556 5.52812C6.91605 5.22045 7.27494 4.78315 7.48686 4.27152C7.69879 3.75988 7.75424 3.1969 7.6462 2.65375C7.53816 2.1106 7.27149 1.61169 6.8799 1.2201C6.48831 0.828517 5.9894 0.561843 5.44625 0.453804C4.90311 0.345765 4.34012 0.401215 3.82849 0.61314C3.31685 0.825065 2.87955 1.18395 2.57189 1.64441C2.26422 2.10486 2.1 2.64622 2.1 3.2C2.1 3.94261 2.395 4.6548 2.9201 5.1799C3.4452 5.705 4.15739 6 4.9 6ZM7 7.4C7.00158 7.16619 7.06255 6.93661 7.17719 6.73282C7.07219 6.72188 6.96938 6.7 6.86 6.7H6.49469C5.99468 6.93059 5.45061 7.04999 4.9 7.04999C4.34939 7.04999 3.80532 6.93059 3.30531 6.7H2.94C2.16032 6.70018 1.41262 7.00998 0.861298 7.5613C0.309979 8.11262 0.000173978 8.86032 0 9.64L0 10.55C0 10.8285 0.110625 11.0956 0.307538 11.2925C0.504451 11.4894 0.771523 11.6 1.05 11.6H7.19469C7.06887 11.3881 7.00168 11.1465 7 10.9V7.4ZM13.3 6.7H12.6V4.95C12.6 4.48587 12.4156 4.04075 12.0874 3.71257C11.7592 3.38438 11.3141 3.2 10.85 3.2C10.3859 3.2 9.94075 3.38438 9.61256 3.71257C9.28437 4.04075 9.1 4.48587 9.1 4.95V6.7H8.4C8.21435 6.7 8.0363 6.77375 7.90503 6.90503C7.77375 7.0363 7.7 7.21435 7.7 7.4V10.9C7.7 11.0857 7.77375 11.2637 7.90503 11.395C8.0363 11.5263 8.21435 11.6 8.4 11.6H13.3C13.4857 11.6 13.6637 11.5263 13.795 11.395C13.9263 11.2637 14 11.0857 14 10.9V7.4C14 7.21435 13.9263 7.0363 13.795 6.90503C13.6637 6.77375 13.4857 6.7 13.3 6.7ZM10.85 9.85C10.7116 9.85 10.5762 9.80895 10.4611 9.73203C10.346 9.65511 10.2563 9.54579 10.2033 9.41788C10.1503 9.28997 10.1364 9.14923 10.1635 9.01344C10.1905 8.87765 10.2571 8.75292 10.355 8.65503C10.4529 8.55713 10.5777 8.49046 10.7134 8.46345C10.8492 8.43644 10.99 8.45031 11.1179 8.50329C11.2458 8.55627 11.3551 8.64599 11.432 8.7611C11.5089 8.87622 11.55 9.01156 11.55 9.15C11.55 9.33565 11.4763 9.5137 11.345 9.64498C11.2137 9.77625 11.0357 9.85 10.85 9.85ZM11.55 6.7H10.15V4.95C10.15 4.76435 10.2238 4.5863 10.355 4.45503C10.4863 4.32375 10.6643 4.25 10.85 4.25C11.0357 4.25 11.2137 4.32375 11.345 4.45503C11.4763 4.5863 11.55 4.76435 11.55 4.95V6.7Z"
        fill="#006666" />
</svg>
